<?xml version="1.0" standalone="no"?>
<!DOCTYPE svg PUBLIC "-//W3C//DTD SVG 20010904//EN"
 "http://www.w3.org/TR/2001/REC-SVG-20010904/DTD/svg10.dtd">
<svg version="1.0" xmlns="http://www.w3.org/2000/svg"
 width="153.000000pt" height="153.000000pt" viewBox="0 0 153.000000 153.000000"
 preserveAspectRatio="xMidYMid meet">
<metadata>
Created by potrace 1.14, written by Peter Selinger 2001-2017
</metadata>
<g transform="translate(0.000000,153.000000) scale(0.100000,-0.100000)"
fill="#000000" stroke="none">
<path d="M479 1300 c-47 -53 -46 -53 -189 -66 -41 -4 -82 -8 -90 -10 -8 -1
-24 -3 -35 -4 -11 -1 117 -48 285 -104 168 -57 307 -102 308 -100 2 1 -40 67
-94 146 -122 179 -128 187 -135 188 -3 0 -25 -22 -50 -50z"/>
<path d="M1036 1269 c-8 -25 -38 -134 -41 -150 -2 -9 -8 -34 -14 -55 -6 -21
-9 -40 -7 -42 4 -3 119 22 273 60 51 13 80 28 52 28 -8 0 -46 10 -86 21 -69
21 -75 25 -122 87 -32 41 -52 60 -55 51z"/>
<path d="M763 1222 c-13 -2 -23 -6 -23 -10 1 -14 25 -47 35 -48 6 -1 42 -4 81
-8 68 -5 72 -4 78 17 8 31 -3 37 -70 43 -32 3 -63 6 -69 8 -5 1 -20 0 -32 -2z"/>
<path d="M393 1048 c-30 -39 -37 -132 -15 -190 l11 -26 58 15 c32 8 59 16 60
17 1 1 -4 20 -12 43 -12 36 -13 74 0 109 2 7 -15 19 -39 28 -50 19 -51 19 -63
4z"/>
<path d="M1188 1002 c-10 -2 -18 -4 -18 -5 0 -1 9 -24 19 -52 10 -27 19 -54
19 -60 0 -11 108 -56 116 -48 9 10 -5 80 -27 123 -20 40 -26 45 -57 46 -19 0
-43 -2 -52 -4z"/>
<path d="M620 828 c-85 -28 -162 -53 -170 -56 -8 -3 -112 -38 -230 -78 -178
-60 -208 -73 -175 -74 22 -1 58 -3 80 -5 22 -1 89 -6 150 -9 62 -4 112 -12
116 -18 4 -6 11 -32 15 -57 4 -25 8 -50 10 -56 1 -5 14 -73 29 -150 14 -77 28
-142 31 -144 2 -2 11 13 20 35 9 21 26 62 39 89 12 28 57 129 100 225 42 96
91 204 107 240 41 88 49 110 40 109 -4 0 -77 -24 -162 -51z"/>
<path d="M970 874 c0 -2 59 -86 132 -187 72 -100 165 -228 206 -284 40 -57 75
-103 77 -103 1 0 1 24 -1 53 -1 28 -4 99 -6 157 l-3 105 73 29 c39 17 69 33
65 36 -16 14 -543 202 -543 194z"/>
<path d="M790 664 c-5 -11 -10 -33 -12 -50 -3 -27 -1 -29 42 -35 65 -9 199 -4
211 8 7 7 3 25 -13 54 l-23 44 -99 0 c-90 0 -99 -2 -106 -21z"/>
</g>
</svg>
