<?xml version="1.0" standalone="no"?>
<!DOCTYPE svg PUBLIC "-//W3C//DTD SVG 20010904//EN"
 "http://www.w3.org/TR/2001/REC-SVG-20010904/DTD/svg10.dtd">
<svg version="1.0" xmlns="http://www.w3.org/2000/svg"
 width="16.000000pt" height="16.000000pt" viewBox="0 0 16.000000 16.000000"
 preserveAspectRatio="xMidYMid meet">
<metadata>
Created by potrace 1.11, written by Peter Selinger 2001-2013
</metadata>
<g transform="translate(0.000000,16.000000) scale(0.006154,-0.006154)"
fill="#000000" stroke="none">
<path d="M857 2202 c-88 -109 -115 -135 -143 -138 -16 -1 -51 -5 -79 -8 -27
-3 -81 -8 -120 -12 -38 -3 -78 -8 -87 -9 -9 -2 -52 -7 -95 -10 -81 -7 -96 -11
-72 -19 8 -3 120 -40 249 -82 129 -42 237 -78 239 -80 2 -1 -15 -24 -37 -51
-50 -60 -72 -103 -88 -171 -23 -100 2 -215 71 -318 l42 -62 -326 -107 c-404
-133 -391 -128 -391 -135 0 -3 26 -5 58 -6 31 -1 107 -4 167 -8 121 -7 270
-16 353 -20 29 -2 57 -7 61 -12 5 -5 18 -61 30 -124 12 -63 24 -126 27 -140 2
-14 9 -47 14 -75 6 -27 12 -59 14 -70 2 -11 10 -49 17 -85 40 -206 46 -226 57
-200 11 27 161 364 211 472 17 37 37 84 46 105 50 122 68 152 84 144 54 -28
259 -63 386 -65 113 -2 331 38 382 70 18 11 24 11 33 1 6 -6 84 -114 173 -238
89 -124 175 -244 190 -265 l28 -39 -6 195 c-4 107 -8 230 -10 272 l-3 77 76
31 c41 18 99 41 129 52 51 20 67 34 41 35 -12 1 -349 121 -355 127 -2 1 4 24
13 50 12 34 15 71 12 129 -3 68 -10 94 -40 157 -21 42 -61 102 -93 138 -32 35
-55 66 -51 69 3 4 6 4 6 1 0 -4 26 1 58 9 31 8 65 17 76 19 29 5 29 11 -1 18
-15 4 -83 24 -149 44 l-121 37 -39 54 c-22 29 -49 65 -62 80 -13 14 -30 38
-40 54 -9 15 -19 27 -22 27 -7 0 -45 -141 -42 -154 3 -9 -3 -8 -169 27 -133
28 -295 33 -417 12 -69 -11 -73 -11 -83 7 -11 20 -147 217 -158 230 -3 3 -23
-15 -44 -40z m654 -296 c50 -11 164 -48 172 -56 5 -4 -1 -44 -13 -89 -13 -45
-21 -84 -19 -85 2 -2 58 9 124 26 l120 30 43 -49 c100 -112 128 -229 83 -347
-8 -21 -16 -26 -29 -21 -9 4 -37 14 -62 22 -25 8 -99 35 -164 59 -66 24 -120
43 -122 41 -1 -1 40 -63 92 -137 52 -74 94 -137 94 -141 0 -8 -135 -47 -190
-55 -58 -7 -181 -7 -234 1 -58 9 -169 37 -180 46 -4 4 20 69 53 144 34 76 60
139 59 141 -3 2 -313 -97 -375 -121 -19 -7 -76 58 -108 122 -37 76 -43 169
-14 233 26 58 66 110 85 110 12 0 295 -92 362 -117 9 -4 -21 47 -66 112 -44
66 -80 121 -78 123 18 18 295 24 367 8z"/>
</g>
</svg>
