<?xml version="1.0" standalone="no"?>
<!DOCTYPE svg PUBLIC "-//W3C//DTD SVG 20010904//EN"
 "http://www.w3.org/TR/2001/REC-SVG-20010904/DTD/svg10.dtd">
<svg version="1.0" xmlns="http://www.w3.org/2000/svg"
 width="420.000000pt" height="420.000000pt" viewBox="0 0 420.000000 420.000000"
 preserveAspectRatio="xMidYMid meet">
<metadata>
Created by potrace 1.14, written by Peter Selinger 2001-2017
</metadata>
<g transform="translate(0.000000,420.000000) scale(0.100000,-0.100000)"
fill="#000000" stroke="none">
<path d="M1368 3643 c-10 -3 -18 -10 -18 -16 0 -7 -9 -18 -20 -25 -12 -7 -18
-17 -15 -22 3 -6 -2 -10 -11 -10 -10 0 -15 -3 -11 -6 3 -3 -10 -21 -29 -39
-19 -18 -34 -38 -34 -44 0 -6 -7 -11 -15 -11 -8 0 -14 -6 -12 -12 1 -8 -6 -12
-17 -10 -12 2 -16 -1 -10 -9 4 -7 3 -10 -4 -5 -6 3 -14 1 -17 -4 -5 -8 -13 -6
-25 5 -14 13 -19 13 -28 2 -6 -7 -29 -12 -54 -12 -24 1 -49 -3 -57 -9 -12 -9
-13 -8 -6 4 8 13 7 13 -9 1 -15 -13 -19 -13 -27 0 -8 12 -13 6 -10 -13 0 -3
-7 -5 -17 -3 -9 1 -16 8 -14 15 1 6 -2 9 -8 5 -6 -3 -8 -10 -6 -14 3 -4 -16
-8 -42 -9 -83 -2 -166 -10 -217 -19 -27 -5 -80 -9 -118 -9 -53 1 -66 -2 -62
-13 4 -11 2 -11 -9 -2 -11 9 -15 9 -19 -1 -4 -10 -6 -10 -6 0 -1 6 -9 12 -18
11 -11 0 -13 -3 -5 -6 6 -2 12 -11 12 -19 0 -8 9 -14 19 -14 11 0 23 -5 26
-10 5 -8 12 -7 23 2 9 7 13 8 9 2 -8 -13 38 -29 53 -19 6 4 10 2 10 -3 0 -14
48 -32 67 -25 12 5 14 3 8 -7 -6 -10 -4 -12 8 -7 10 3 17 3 17 -1 0 -4 10 -8
22 -9 11 -1 24 -7 28 -14 6 -8 9 -8 13 2 4 10 6 10 6 2 1 -7 12 -13 26 -13 14
0 25 -4 25 -10 0 -5 10 -10 23 -10 13 0 27 -4 33 -10 5 -5 22 -11 38 -12 15
-1 32 -8 38 -15 6 -7 21 -13 35 -13 13 0 32 -4 42 -10 10 -5 33 -12 52 -15 19
-3 36 -10 37 -16 2 -5 16 -9 32 -9 16 0 30 -5 32 -11 2 -6 20 -12 41 -12 37
-1 49 -11 25 -20 -7 -3 1 -4 17 -2 34 3 57 -4 50 -14 -2 -4 2 -8 10 -8 8 0 12
5 8 10 -3 5 6 1 21 -8 14 -10 26 -14 26 -11 0 4 10 0 23 -9 13 -8 27 -12 31
-8 4 4 11 1 16 -7 6 -10 10 -11 10 -3 0 7 7 10 16 6 13 -5 13 -7 2 -14 -8 -6
-2 -9 20 -9 18 0 40 -6 47 -14 8 -7 28 -12 44 -11 17 1 28 -1 26 -6 -3 -4 11
-11 32 -14 21 -3 50 -13 66 -21 15 -8 32 -12 37 -9 6 3 10 0 10 -8 0 -10 9
-14 31 -12 19 2 33 -3 36 -11 3 -8 9 -14 15 -14 5 0 6 6 2 13 -6 10 -4 10 7 0
7 -7 24 -13 37 -13 13 0 20 -4 17 -10 -3 -5 1 -11 9 -11 9 -1 21 -3 26 -4 6
-1 17 -3 26 -4 9 -1 12 -6 8 -13 -5 -8 0 -7 11 2 11 9 16 10 11 3 -7 -13 6
-16 57 -16 12 0 14 -3 8 -11 -7 -8 0 -11 22 -11 18 0 36 4 40 10 5 5 5 0 2
-12 -5 -17 -3 -22 8 -17 16 6 12 44 -4 44 -5 0 -9 7 -9 16 0 8 -4 12 -10 9 -5
-3 -10 3 -10 15 0 12 -4 19 -9 16 -4 -3 -17 12 -27 33 -10 22 -22 37 -25 35
-4 -2 -10 8 -13 21 -4 14 -11 23 -16 20 -6 -3 -10 3 -10 15 0 12 -4 18 -10 15
-5 -3 -10 1 -10 10 0 9 -6 23 -12 30 -32 35 -38 45 -38 60 0 8 -7 15 -15 15
-8 0 -15 7 -15 15 0 8 -4 15 -10 15 -5 0 -10 10 -10 23 0 18 -2 19 -10 7 -8
-12 -10 -9 -10 13 0 18 -5 27 -17 27 -9 0 -14 3 -10 6 3 3 -3 14 -14 25 -10
10 -16 25 -13 34 5 11 2 14 -12 8 -13 -5 -16 -3 -11 10 4 11 1 17 -9 17 -8 0
-13 4 -10 9 3 5 -10 28 -29 52 -18 24 -31 47 -29 51 3 5 1 7 -4 6 -6 -2 -9 0
-9 4 1 3 -11 18 -26 32 -15 14 -23 26 -18 26 6 0 3 9 -6 19 -9 11 -20 18 -24
16 -4 -3 -6 3 -5 13 0 9 -4 16 -10 15 -6 -1 -11 4 -11 10 0 7 -7 24 -17 39
-15 23 -23 26 -79 25 -34 0 -70 -2 -79 -4z m-651 -259 c-3 -3 -12 -4 -19 -1
-8 3 -5 6 6 6 11 1 17 -2 13 -5z m220 -210 c-3 -3 -12 -4 -19 -1 -8 3 -5 6 6
6 11 1 17 -2 13 -5z"/>
<path d="M2846 3511 c-3 -9 -6 -33 -8 -53 -1 -20 -7 -36 -12 -35 -7 1 -10 -14
-9 -36 1 -33 -1 -36 -15 -25 -13 12 -14 10 -3 -9 8 -16 8 -23 1 -23 -6 0 -10
-6 -9 -12 3 -29 -2 -59 -9 -54 -5 3 -9 -11 -10 -31 -1 -19 -6 -41 -11 -47 -6
-7 -12 -29 -15 -50 -3 -20 -11 -45 -18 -54 -11 -13 -11 -15 2 -7 12 6 13 5 3
-6 -7 -7 -13 -29 -13 -48 0 -27 -3 -32 -10 -21 -8 12 -10 9 -11 -12 -1 -16 -3
-37 -4 -48 -1 -11 -3 -27 -4 -36 0 -8 -5 -12 -11 -9 -6 4 -10 -10 -10 -34 0
-23 -5 -41 -11 -41 -6 0 -9 -5 -7 -12 6 -17 74 -15 70 2 -2 10 1 10 14 -1 12
-9 15 -9 10 -1 -5 9 3 12 29 12 26 0 34 4 29 13 -5 9 -4 9 6 0 11 -10 16 -9
27 5 8 9 11 11 7 3 -5 -10 -3 -12 7 -5 13 8 21 10 72 13 17 1 19 3 8 10 -10 6
-4 9 20 9 41 0 62 5 70 14 3 4 28 9 57 10 38 2 52 7 52 18 0 13 1 13 10 0 8
-12 10 -12 10 -1 0 9 8 12 24 9 16 -3 27 0 31 10 3 8 13 12 25 9 11 -3 22 -1
25 3 3 4 14 6 24 3 13 -3 21 1 24 14 4 17 5 17 6 -1 1 -20 1 -20 17 0 8 10 13
13 9 7 -3 -7 -1 -13 4 -13 6 0 11 5 11 11 0 7 10 9 25 7 14 -3 30 1 36 8 6 7
26 13 43 12 18 -1 39 3 47 8 8 5 17 9 22 10 4 1 9 3 12 4 5 3 32 6 60 9 13 1
13 4 3 14 -7 8 -21 12 -31 9 -10 -2 -25 2 -35 10 -9 8 -33 14 -52 13 -19 -1
-29 0 -22 2 24 9 12 21 -19 19 -17 -1 -37 4 -44 11 -8 7 -22 13 -32 13 -11 0
-24 5 -31 12 -6 6 -30 12 -53 14 -23 1 -45 7 -48 13 -4 5 -23 11 -43 13 -20 1
-34 6 -32 10 3 4 -1 8 -9 8 -22 0 -61 37 -45 43 8 4 7 6 -4 6 -10 1 -18 8 -18
17 0 8 -4 12 -10 9 -9 -5 -15 16 -11 38 1 5 -3 6 -9 2 -5 -3 -13 2 -17 12 -4
10 -17 28 -30 41 -13 13 -20 28 -17 34 5 7 2 8 -5 4 -8 -5 -14 0 -18 13 -3 11
-9 18 -14 15 -5 -3 -9 4 -9 15 0 12 -7 21 -15 21 -8 0 -14 6 -12 13 1 6 -4 11
-10 10 -8 -2 -13 7 -13 21 0 29 -36 43 -44 17z m479 -399 c-3 -3 -11 0 -18 7
-9 10 -8 11 6 5 10 -3 15 -9 12 -12z"/>
<path d="M1980 3366 c0 -9 -3 -15 -7 -15 -22 4 -43 -2 -43 -12 0 -5 5 -7 10
-4 6 3 10 -1 10 -9 0 -9 9 -25 20 -36 12 -12 18 -26 14 -32 -4 -7 -3 -8 4 -4
7 4 12 1 12 -9 0 -9 5 -13 10 -10 6 3 10 -3 10 -14 0 -14 5 -19 15 -15 8 4 15
2 15 -3 0 -5 7 -10 15 -10 8 0 12 4 9 9 -3 4 0 8 5 8 6 0 11 -6 11 -12 0 -9 4
-8 10 2 9 14 14 7 11 -13 -1 -5 3 -6 9 -2 6 3 8 10 6 14 -7 10 76 7 94 -4 8
-5 44 -10 80 -11 144 -3 161 -4 155 -14 -4 -6 9 -11 29 -11 58 -3 60 -3 76
-18 13 -13 15 -12 18 7 2 12 8 20 13 17 8 -5 14 32 10 58 0 4 5 7 13 7 9 0 13
12 12 38 -1 27 -5 36 -16 34 -8 -2 -20 5 -27 14 -7 10 -13 12 -13 6 0 -7 -5
-12 -11 -12 -5 0 -8 4 -5 9 6 9 -17 12 -89 12 -28 0 -35 3 -25 9 15 9 -53 15
-122 10 -16 -1 -28 4 -28 10 0 9 -5 9 -17 -1 -15 -12 -16 -12 -10 4 6 16 5 16
-20 0 -15 -10 -24 -12 -20 -5 5 7 3 12 -5 13 -7 0 -21 2 -30 4 -10 2 -18 -2
-18 -8 0 -8 -4 -7 -9 2 -7 11 -11 10 -20 -5 -8 -15 -10 -16 -11 -3 0 13 -8 14
-48 9 -26 -3 -52 -9 -59 -13 -6 -4 -19 0 -27 9 -15 14 -16 14 -16 0z m305
-165 c-9 -8 -36 -10 -30 -2 2 4 11 8 20 8 8 0 13 -3 10 -6z"/>
<path d="M2010 3369 c0 -5 5 -7 10 -4 6 3 10 8 10 11 0 2 -4 4 -10 4 -5 0 -10
-5 -10 -11z"/>
<path d="M1114 2957 c-3 -9 -11 -17 -18 -17 -6 0 -13 -10 -13 -22 -1 -13 -7
-24 -13 -26 -5 -2 -10 -13 -10 -25 0 -18 -2 -19 -10 -7 -8 13 -10 12 -10 -2 0
-27 -1 -32 -13 -53 -13 -23 -14 -27 -16 -61 0 -14 -5 -23 -10 -20 -12 8 -18
-28 -16 -106 1 -41 -3 -64 -8 -61 -6 4 -7 1 -2 -7 4 -7 10 -31 13 -54 2 -23 8
-42 13 -44 5 -2 9 -16 9 -32 0 -16 5 -30 10 -32 6 -2 12 -20 13 -40 2 -30 4
-34 17 -25 8 6 12 8 8 3 -4 -5 4 -28 17 -51 13 -24 22 -45 20 -47 -2 -2 6 -5
18 -5 17 -2 19 0 7 7 -11 7 -8 10 15 11 17 1 33 1 38 0 4 0 7 7 7 16 0 15 2
16 10 3 6 -10 10 -11 10 -2 0 6 3 11 8 11 24 -4 52 2 47 11 -5 8 22 13 51 9 4
0 10 4 14 10 5 10 40 19 86 23 15 2 13 30 -3 47 -8 7 -12 20 -9 27 3 8 1 14
-3 14 -5 0 -12 -6 -14 -12 -3 -7 -6 4 -6 25 -1 23 -5 36 -11 32 -5 -3 -11 4
-12 17 -2 43 -3 47 -12 55 -5 5 -6 2 -1 -7 5 -8 4 -12 0 -7 -7 6 -17 108 -15
152 3 64 6 83 14 82 5 -1 11 11 12 27 2 16 8 33 15 36 6 4 9 12 5 18 -3 6 2
15 11 21 10 6 12 11 6 11 -7 0 -13 7 -13 15 0 13 -31 21 -62 16 -5 0 -8 3 -8
9 0 5 -6 7 -14 4 -8 -3 -17 -1 -21 5 -3 6 -18 11 -32 11 -23 0 -24 2 -12 17
13 15 12 15 -7 5 -12 -6 -24 -9 -26 -6 -3 2 -16 7 -28 9 -13 3 -27 10 -31 17
-6 9 -10 8 -15 -5z"/>
<path d="M3332 2835 c-7 -9 -35 -16 -75 -16 -11 0 -15 -5 -10 -12 4 -7 -2 -5
-12 3 -11 9 -16 10 -11 3 5 -9 0 -13 -18 -13 -27 0 -43 -15 -26 -25 6 -4 8
-11 4 -16 -3 -5 -2 -8 3 -7 4 2 9 -1 11 -7 2 -5 10 -14 18 -18 8 -4 14 -16 14
-26 0 -9 9 -27 20 -38 14 -15 16 -23 7 -26 -7 -3 -6 -6 4 -6 12 -1 16 -9 14
-31 -1 -17 2 -33 8 -37 6 -4 7 -1 2 7 -5 8 -4 11 2 7 10 -6 13 -47 14 -164 0
-36 4 -52 12 -50 7 1 11 -4 9 -10 -2 -11 23 -16 54 -12 4 0 10 -5 15 -12 4 -7
23 -15 41 -17 18 -2 36 -8 39 -14 3 -5 9 -9 13 -9 20 3 26 0 21 -9 -4 -6 -3
-10 2 -9 4 1 26 1 48 0 30 -1 36 -4 25 -11 -16 -10 -17 -10 38 -14 13 -1 18 8
20 34 2 19 9 38 15 42 9 6 9 8 0 8 -7 0 -13 5 -13 11 0 5 6 7 13 3 10 -6 10
-4 0 7 -15 16 -17 33 -3 24 6 -3 10 -2 10 4 0 5 -5 11 -10 13 -6 2 -12 28 -14
58 -2 30 -5 57 -6 60 -1 3 -2 8 -1 13 0 4 -3 7 -7 7 -4 0 -9 10 -9 22 -1 13
-7 24 -13 26 -5 2 -10 14 -10 27 0 13 -5 25 -11 27 -9 3 -15 22 -18 51 -1 5
-6 5 -11 2 -6 -4 -10 -3 -9 2 4 22 -2 43 -11 38 -5 -3 -10 0 -10 8 0 8 -7 17
-15 21 -8 3 -15 15 -15 26 0 11 -3 19 -7 18 -5 -2 -8 -1 -8 2 0 3 -9 16 -21
28 -17 18 -30 22 -68 20 -26 -2 -51 -7 -54 -13z"/>
<path d="M2148 2430 c-2 -7 -15 -15 -28 -17 -13 -2 -27 -7 -30 -11 -5 -8 -24
-13 -53 -15 -11 -1 -15 -7 -12 -16 4 -11 3 -11 -9 -2 -9 8 -16 8 -20 2 -4 -5
-15 -8 -26 -6 -11 2 -20 -2 -20 -8 0 -7 -15 -13 -34 -14 -18 -2 -46 -9 -61
-17 -16 -8 -32 -13 -37 -10 -4 3 -8 0 -8 -5 0 -6 -18 -14 -40 -17 -22 -4 -37
-10 -34 -15 4 -8 -42 -14 -68 -10 -5 0 -8 -4 -8 -10 0 -8 -5 -7 -15 1 -13 11
-14 10 -9 -4 5 -14 2 -17 -13 -14 -11 1 -28 -4 -38 -12 -13 -10 -16 -11 -11
-2 6 11 4 11 -10 3 -32 -19 -78 -34 -104 -36 -14 -1 -24 -6 -23 -11 1 -5 -12
-10 -29 -11 -17 0 -33 -6 -37 -12 -4 -6 -21 -11 -39 -13 -18 -1 -32 -6 -32
-11 0 -5 -7 -4 -15 3 -13 11 -14 10 -9 -5 5 -11 3 -16 -3 -12 -5 3 -22 0 -37
-8 -14 -8 -24 -9 -20 -4 3 6 -8 3 -25 -6 -17 -9 -37 -13 -43 -9 -6 4 -8 3 -5
-3 8 -13 -10 -21 -41 -18 -14 1 -21 -3 -19 -10 3 -7 -9 -12 -31 -13 -20 -2
-39 -7 -42 -12 -3 -5 -24 -10 -48 -13 -23 -2 -46 -8 -50 -12 -4 -5 1 -5 11 -2
11 4 16 3 12 -3 -3 -5 -16 -10 -28 -10 -12 0 -32 -1 -45 -1 -12 0 -20 -4 -17
-10 4 -5 -8 -9 -25 -9 -17 0 -29 -4 -26 -9 3 -5 -1 -12 -10 -15 -10 -4 -13 -2
-8 6 5 7 3 8 -7 2 -17 -10 -38 -15 -62 -15 -9 0 -15 -4 -12 -10 4 -5 -5 -9
-19 -9 -14 0 -26 -6 -26 -12 0 -9 -4 -8 -10 2 -9 13 -10 13 -10 0 0 -10 -10
-16 -28 -17 -47 -1 -53 -3 -48 -12 3 -4 -2 -8 -12 -8 -9 0 -30 -1 -47 -3 -30
-2 -30 -2 -5 -10 23 -7 23 -8 -10 -10 -19 -1 -38 -2 -43 -1 -4 0 -7 -3 -7 -7
0 -5 -6 -9 -12 -10 -45 -5 -78 -16 -78 -24 0 -5 -4 -7 -9 -3 -5 3 -12 1 -15
-3 -3 -5 -17 -8 -30 -7 -17 2 -23 -1 -20 -10 4 -8 -3 -11 -20 -10 -14 2 -26
-1 -26 -7 0 -6 -7 -5 -16 2 -12 11 -15 11 -12 1 3 -13 -18 -21 -61 -23 -17 0
-19 -3 -10 -9 16 -10 10 -11 -44 -11 -21 0 -35 -4 -31 -9 3 -6 1 -15 -5 -22
-8 -10 -2 -13 26 -14 24 0 31 2 22 8 -11 7 -10 9 4 9 9 0 17 -5 17 -12 0 -9 3
-9 12 0 7 7 17 12 22 12 6 0 4 -5 -4 -10 -10 -7 22 -10 100 -11 63 -1 121 -1
129 0 8 2 10 -2 5 -11 -6 -9 -3 -9 10 1 15 13 19 13 27 0 6 -10 9 -10 9 -1 0
6 6 12 14 12 8 0 17 -6 19 -12 4 -9 8 -9 14 -3 14 17 36 17 30 0 -8 -20 2 -19
20 3 12 14 14 14 10 1 -4 -13 2 -15 39 -9 24 4 44 4 44 1 0 -3 60 -6 134 -6
74 0 132 -4 129 -9 -3 -4 5 -5 17 -1 12 4 20 3 17 -1 -3 -5 12 -10 34 -10 21
-1 36 3 33 8 -3 4 0 8 5 8 6 0 11 -4 11 -8 0 -5 15 -8 33 -8 27 1 33 -3 35
-23 2 -14 9 -34 16 -45 7 -12 12 -42 12 -67 -1 -32 2 -45 11 -42 8 3 11 -7 9
-32 -2 -21 2 -42 10 -50 12 -11 11 -14 -4 -18 -16 -4 -16 -5 1 -6 13 -1 17
-10 17 -47 0 -30 4 -43 11 -38 8 5 8 1 0 -14 -14 -26 -14 -32 0 -32 5 0 7 6 3
13 -4 6 -3 9 1 5 5 -5 8 -25 8 -45 0 -21 5 -44 11 -52 9 -12 8 -13 -4 -6 -13
8 -13 7 0 -9 8 -10 16 -41 18 -69 2 -29 9 -55 15 -59 8 -5 8 -8 -3 -8 -11 0
-12 -2 -2 -8 7 -5 14 -32 16 -61 2 -31 9 -57 17 -62 12 -7 11 -9 -1 -9 -9 0
-11 -3 -5 -8 6 -4 12 -16 13 -27 2 -11 9 -26 15 -34 9 -12 9 -13 0 -7 -9 5
-13 1 -13 -13 0 -10 4 -21 9 -23 5 -1 11 -21 12 -43 2 -22 6 -42 10 -45 4 -3
9 -28 11 -55 4 -48 6 -50 36 -53 26 -3 32 1 38 22 3 14 10 26 14 26 5 0 10 12
12 28 2 15 8 26 14 25 5 -1 10 10 10 25 -1 17 4 26 12 24 6 -1 11 1 11 5 -3
20 3 66 8 56 8 -22 21 -14 16 8 -4 12 0 25 8 30 11 7 11 9 1 9 -7 0 -10 5 -7
10 4 6 11 7 17 4 7 -5 9 -1 5 9 -3 9 1 23 9 32 8 8 16 26 17 40 1 14 9 30 17
35 8 5 11 10 6 10 -5 0 -2 8 7 18 10 10 18 30 19 45 1 15 8 29 15 31 6 3 10
14 8 25 -2 11 1 20 7 18 6 -1 12 9 14 23 3 14 9 27 14 28 6 2 10 11 10 21 0 9
6 23 13 30 10 11 9 13 -3 7 -9 -5 -8 -2 3 7 9 8 17 22 17 31 0 10 4 15 8 12 4
-2 9 7 10 20 1 14 8 35 16 46 8 11 12 27 9 34 -4 10 0 12 13 7 10 -4 15 -2 11
4 -3 5 1 22 9 38 8 15 15 39 16 52 2 13 8 21 14 19 6 -2 11 3 11 12 0 35 3 43
15 36 8 -5 9 -2 5 9 -3 9 0 23 8 31 18 18 19 29 3 21 -7 -4 -5 0 6 9 10 8 15
19 12 24 -3 6 1 12 9 16 9 3 15 18 15 36 0 18 4 29 10 25 6 -3 10 -3 11 2 2
29 9 47 19 53 7 4 11 10 11 14 -3 22 0 36 7 32 4 -2 9 4 10 15 4 42 6 48 16
46 6 -1 10 8 10 21 -1 14 4 22 15 22 14 0 14 2 1 10 -10 6 -11 10 -2 10 6 0
12 9 12 19 0 11 4 21 10 23 5 2 11 14 14 28 2 14 9 24 16 22 6 -1 9 2 5 8 -4
6 0 21 8 34 8 12 17 33 19 47 2 13 9 23 15 22 6 -1 10 10 9 27 -1 16 1 27 5
24 8 -5 19 21 19 46 0 11 7 23 16 28 9 5 15 12 15 15 -1 4 -1 15 -1 25 0 15 2
15 11 2 8 -12 10 -12 8 5 -3 40 1 55 15 55 10 0 13 8 10 26 -3 14 -1 23 5 20
13 -8 23 23 12 41 -6 12 -9 13 -13 3z m-1204 -768 c3 -5 -1 -9 -9 -9 -8 0 -12
4 -9 9 3 4 7 8 9 8 2 0 6 -4 9 -8z"/>
<path d="M2650 2419 c0 -5 5 -7 10 -4 6 3 10 -3 10 -14 0 -12 4 -21 10 -21 5
0 12 -11 16 -25 3 -14 10 -22 15 -20 5 3 11 -6 15 -20 3 -14 10 -25 16 -25 5
0 6 -4 3 -10 -3 -5 1 -10 9 -10 15 0 21 -12 17 -33 -1 -5 2 -6 6 -4 5 3 14 -1
21 -9 7 -8 8 -14 3 -14 -5 0 6 -16 25 -36 18 -20 32 -40 29 -43 -2 -4 5 -14
16 -21 10 -8 19 -20 19 -28 0 -7 5 -10 10 -7 6 3 10 -1 10 -9 0 -9 6 -16 13
-16 8 0 7 -4 -3 -10 -13 -8 -12 -10 3 -10 9 0 17 -5 17 -10 0 -6 11 -23 25
-38 14 -15 25 -33 25 -40 0 -7 5 -10 10 -7 6 3 10 -3 10 -15 0 -12 5 -18 10
-15 6 3 10 -1 10 -9 0 -9 4 -16 9 -16 5 0 12 -8 16 -19 3 -10 19 -33 35 -50
17 -17 25 -31 19 -31 -5 0 -7 -5 -4 -10 4 -6 10 -8 15 -5 4 3 10 -5 13 -16 4
-13 10 -18 18 -13 8 4 10 3 5 -5 -5 -7 1 -20 13 -30 11 -10 18 -20 16 -23 -3
-2 6 -15 20 -28 14 -13 25 -33 25 -44 0 -17 2 -18 10 -6 8 12 10 11 10 -6 0
-12 7 -25 16 -28 8 -3 12 -10 9 -16 -3 -5 1 -10 10 -10 9 0 14 -4 10 -9 -3 -5
-1 -12 5 -16 6 -4 8 -11 4 -16 -3 -5 0 -8 8 -7 7 2 12 -3 11 -9 -2 -7 4 -13
12 -13 8 0 14 -3 14 -7 -3 -20 2 -34 11 -28 6 3 10 -3 10 -13 0 -11 7 -23 16
-26 8 -3 13 -10 9 -15 -3 -5 5 -17 17 -25 12 -9 19 -16 15 -16 -4 0 2 -9 13
-20 12 -12 18 -26 14 -32 -4 -7 -3 -8 4 -4 7 4 12 2 12 -4 0 -6 5 -8 12 -4 6
4 8 3 4 -4 -3 -6 -2 -13 4 -17 6 -4 8 -11 5 -16 -4 -5 1 -9 10 -9 9 0 14 -4
11 -9 -3 -5 1 -11 9 -15 8 -3 15 -12 15 -21 0 -9 11 -26 25 -39 14 -13 25 -32
25 -42 0 -16 2 -17 10 -4 8 12 10 11 10 -7 0 -12 6 -26 14 -30 8 -4 16 -12 18
-18 2 -5 7 -9 12 -7 5 2 6 -4 3 -13 -4 -8 -2 -15 4 -15 6 0 7 -5 4 -10 -4 -6
-1 -9 7 -8 7 2 14 -8 16 -21 3 -19 6 -21 13 -10 7 11 9 11 9 -3 0 -9 6 -19 13
-21 9 -4 9 -6 0 -6 -7 -1 3 -16 21 -35 19 -18 36 -41 38 -51 1 -10 8 -20 15
-22 9 -3 11 43 9 184 -3 155 -6 188 -17 185 -11 -2 -11 0 1 10 19 17 22 61 3
54 -18 -7 -16 4 5 21 16 14 16 14 -3 8 -16 -5 -18 -4 -7 6 13 14 17 53 4 45
-4 -2 -8 4 -8 15 0 10 4 19 9 19 4 0 5 6 0 13 -4 6 -9 20 -10 31 -3 16 -1 17
14 5 16 -13 17 -12 5 3 -19 24 -25 70 -10 79 7 5 9 9 3 9 -6 0 -11 38 -12 90
-2 87 1 96 29 91 4 0 5 5 2 13 -4 10 2 12 20 9 19 -4 26 -1 26 10 0 11 9 15
31 15 17 -1 34 4 38 11 4 7 18 13 30 14 13 1 20 6 17 14 -3 7 -1 13 4 13 6 0
10 -4 10 -9 0 -5 11 -4 25 2 14 7 25 15 25 20 0 4 14 7 31 7 17 0 28 4 24 10
-3 6 3 11 14 11 32 2 34 3 60 21 29 21 25 28 -17 31 -20 1 -27 6 -21 13 6 7
-2 10 -26 9 -22 0 -35 4 -35 12 0 7 -10 13 -23 13 -13 0 -27 4 -32 9 -9 8 -56
20 -92 23 -7 1 -10 5 -7 10 3 4 -9 8 -26 8 -18 0 -29 4 -25 10 3 6 -5 11 -19
11 -42 2 -46 3 -54 14 -4 6 -20 12 -37 13 -16 2 -31 8 -33 13 -2 5 -15 9 -28
9 -14 0 -23 4 -20 8 2 4 -7 9 -21 10 -14 1 -31 6 -38 12 -6 5 -15 7 -18 3 -4
-3 -7 -1 -7 5 0 6 -8 11 -17 11 -39 1 -52 5 -47 13 3 4 -2 8 -10 8 -8 0 -27 5
-43 12 -15 6 -39 13 -53 14 -14 2 -26 8 -28 14 -2 5 -14 10 -27 10 -13 0 -25
5 -27 11 -2 5 -18 11 -36 11 -25 1 -32 5 -27 16 4 12 3 13 -10 2 -10 -8 -15
-9 -15 -1 0 6 -8 11 -18 11 -10 0 -24 6 -31 13 -11 10 -13 9 -7 -3 6 -12 5
-11 -6 1 -7 9 -21 15 -30 13 -10 -1 -20 2 -24 7 -3 5 -10 7 -15 4 -5 -4 -9 -1
-9 4 0 6 -11 11 -25 11 -25 0 -64 17 -76 33 -3 5 -22 9 -43 10 -20 1 -34 7
-32 13 2 5 -12 11 -32 12 -20 2 -42 8 -50 14 -8 7 -24 14 -35 15 -12 2 -23 8
-25 13 -2 6 -8 10 -13 10 -6 0 -7 -6 -3 -12 6 -10 4 -10 -7 0 -7 6 -24 12 -37
12 -13 0 -20 4 -17 10 3 6 -3 10 -14 10 -11 0 -23 5 -26 10 -8 13 -25 13 -25
-1z"/>
<path d="M2138 1903 c-17 -4 -23 -16 -19 -37 1 -5 -4 -4 -12 2 -12 10 -14 8
-12 -13 2 -14 -1 -25 -6 -25 -6 0 -7 -4 -4 -10 3 -5 1 -10 -4 -10 -6 0 -11
-12 -11 -26 0 -14 -4 -23 -10 -19 -8 5 -15 -10 -8 -17 2 -2 -5 -14 -15 -28 -9
-13 -17 -33 -17 -43 0 -10 -4 -15 -10 -12 -12 7 -13 -15 -2 -32 5 -8 35 -14
71 -16 35 -2 66 -8 69 -13 4 -6 25 -11 47 -13 22 -2 43 -8 47 -14 6 -9 8 -9 8
1 0 6 10 12 23 12 15 0 18 -3 9 -9 -8 -4 62 -9 159 -9 122 -1 177 2 188 11 12
9 13 9 7 0 -4 -7 -3 -13 3 -13 5 0 13 5 16 10 3 6 12 10 18 10 7 0 6 -4 -3
-10 -8 -5 -10 -10 -4 -10 5 0 15 5 20 10 6 6 45 11 88 12 42 1 79 5 82 10 3 4
-1 5 -9 2 -8 -3 -17 -2 -20 3 -3 5 13 9 36 9 104 3 112 4 97 14 -8 5 -10 10
-4 10 6 0 11 7 11 15 0 8 -7 15 -14 15 -8 0 -11 5 -8 10 3 6 1 10 -5 10 -6 0
-8 5 -5 10 3 6 -1 10 -9 10 -9 0 -16 5 -16 11 0 7 -12 23 -27 37 -22 20 -24
24 -8 19 15 -6 13 -2 -7 16 -16 14 -28 30 -28 36 0 7 -4 9 -10 6 -5 -3 -10 3
-10 15 0 12 -4 18 -10 15 -5 -3 -10 0 -10 8 0 8 -8 21 -17 28 -15 12 -16 12
-10 -5 6 -15 5 -17 -7 -7 -11 9 -15 9 -19 -1 -4 -10 -8 -10 -16 2 -6 8 -11 10
-11 4 0 -6 -14 -11 -31 -12 -18 0 -36 -5 -42 -11 -7 -7 -16 -7 -30 0 -14 8
-18 8 -13 0 5 -8 -30 -11 -120 -11 -106 0 -129 3 -139 17 -9 13 -14 13 -20 3
-6 -9 -4 -11 6 -5 12 7 12 5 1 -6 -11 -12 -14 -12 -22 1 -9 13 -10 13 -10 0 0
-13 -1 -13 -10 0 -5 8 -10 11 -10 6 0 -5 -5 -5 -12 0 -7 5 -38 9 -70 9 -44 0
-54 3 -46 13 6 6 9 11 7 11 -2 -1 -12 -3 -21 -6z m189 -319 c-3 -3 -12 -4 -19
-1 -8 3 -5 6 6 6 11 1 17 -2 13 -5z"/>
</g>
</svg>
